<?xml version="1.0" encoding="utf-8"?>
<!-- Generator: Adobe Illustrator 16.0.3, SVG Export Plug-In . SVG Version: 6.00 Build 0)  -->
<!DOCTYPE svg PUBLIC "-//W3C//DTD SVG 1.0//EN" "http://www.w3.org/TR/2001/REC-SVG-20010904/DTD/svg10.dtd">
<svg version="1.0" xmlns="http://www.w3.org/2000/svg" xmlns:xlink="http://www.w3.org/1999/xlink" x="0px" y="0px" width="595px"
	 height="150px" viewBox="0.14 38.385 595 150" enable-background="new 0.14 38.385 595 150" xml:space="preserve">
<g id="letters" fill="#3C3C3C">
	<path d="M80.327,158.483H63.57l-16.758-43.568l-6.703,13.404v30.164H26.703V64.641h13.405v40.218l20.109-40.218
		h16.757l-20.161,36.867L80.327,158.483z"/>
	<path d="M128.425,158.483l-13.511-43.568H104.86v43.568H91.454V64.641h16.757c5.865,0,10.734,0.603,14.61,1.807
		c3.875,1.205,6.966,2.906,9.27,5.106c2.304,2.199,3.927,4.844,4.87,7.934c0.941,3.09,1.414,6.521,1.414,10.29
		c0,3.736-0.394,6.887-1.179,9.452c-0.784,2.566-1.771,4.696-2.958,6.39c-1.188,1.692-2.461,3.003-3.822,3.927
		c-1.362,0.926-2.619,1.597-3.771,2.016l15.082,46.921H128.425z M104.86,104.859h3.353c2.514,0,4.8-0.235,6.859-0.707
		c2.061-0.472,3.823-1.282,5.289-2.435c1.467-1.152,2.602-2.697,3.404-4.635c0.803-1.938,1.205-4.373,1.205-7.306
		c0-2.932-0.402-5.367-1.205-7.305s-1.938-3.482-3.404-4.635c-1.466-1.152-3.229-1.963-5.289-2.436
		c-2.061-0.471-4.347-0.707-6.859-0.707h-3.353V104.859z"/>
	<path d="M166.522,135.022l-5.026,23.461h-13.406l20.108-93.842h13.406l20.109,93.842h-13.406l-5.027-23.461H166.522
		z M181.604,124.967l-6.703-40.218l-6.703,40.218H181.604L181.604,124.967z"/>
	<path d="M237.871,159.478c-3.91,0-7.288-0.463-10.134-1.388s-5.263-2.199-7.252-3.823
		c-1.989-1.623-3.596-3.543-4.817-5.76c-1.224-2.217-2.173-4.601-2.854-7.148c-0.681-2.548-1.144-5.219-1.388-8.013
		c-0.245-2.792-0.367-5.585-0.367-8.379V64.641h13.406v60.327c0,1.676,0.018,3.422,0.053,5.237c0.034,1.814,0.184,3.587,0.445,5.314
		c0.262,1.729,0.655,3.378,1.178,4.948c0.524,1.571,1.283,2.941,2.278,4.111s2.26,2.104,3.796,2.802s3.421,1.047,5.656,1.047
		c2.233,0,4.118-0.349,5.655-1.047c1.536-0.698,2.803-1.632,3.796-2.802c0.995-1.17,1.755-2.54,2.278-4.111
		c0.523-1.57,0.917-3.221,1.178-4.948c0.263-1.729,0.41-3.5,0.445-5.314c0.035-1.815,0.053-3.563,0.053-5.237V64.641h13.406v60.327
		c0,2.794-0.123,5.587-0.366,8.379c-0.245,2.794-0.707,5.465-1.388,8.013c-0.681,2.55-1.632,4.933-2.854,7.148
		c-1.223,2.217-2.828,4.137-4.817,5.76c-1.99,1.624-4.408,2.898-7.253,3.823C245.158,159.015,241.781,159.478,237.871,159.478z"/>
	<path d="M322.731,64.641V76.58h-16.757v81.902h-13.407V76.58H275.81V64.641H322.731z"/>
	<path d="M406.883,158.483h-16.758l-16.757-43.568l-6.703,13.404v30.164h-13.406V64.641h13.406v40.218l20.107-40.218
		h16.758l-20.16,36.867L406.883,158.483z"/>
	<path d="M464.304,128.319c0,4.189-0.438,8.17-1.31,11.94c-0.873,3.771-2.34,7.069-4.398,9.896
		c-2.062,2.827-4.811,5.079-8.248,6.756c-3.438,1.676-7.724,2.514-12.855,2.514c-3.491,0-6.582-0.385-9.27-1.151
		c-2.688-0.768-5.021-1.833-6.991-3.194c-1.973-1.361-3.64-3.002-5.001-4.923c-1.36-1.92-2.453-4.031-3.271-6.337
		c-0.821-2.304-1.406-4.766-1.755-7.384c-0.351-2.618-0.523-5.323-0.523-8.117V94.804c0-2.793,0.174-5.499,0.523-8.117
		c0.349-2.618,0.934-5.08,1.755-7.384c0.818-2.304,1.911-4.416,3.271-6.336c1.361-1.919,3.028-3.562,5.001-4.922
		c1.972-1.362,4.303-2.426,6.991-3.194c2.688-0.768,5.776-1.152,9.27-1.152c5.132,0,9.417,0.839,12.855,2.515
		c3.438,1.676,6.188,3.928,8.248,6.755c2.06,2.828,3.525,6.127,4.398,9.896c0.872,3.771,1.31,7.75,1.31,11.94V128.319z
		 M424.086,131.67c0,2.514,0.227,4.801,0.681,6.859c0.453,2.062,1.204,3.823,2.252,5.289c1.047,1.468,2.426,2.603,4.137,3.404
		c1.71,0.804,3.823,1.204,6.337,1.204c2.515,0,4.625-0.4,6.336-1.204c1.71-0.803,3.091-1.938,4.138-3.404
		c1.048-1.466,1.798-3.229,2.252-5.289c0.453-2.06,0.681-4.347,0.681-6.859V91.453c0-2.515-0.228-4.801-0.681-6.86
		c-0.454-2.06-1.204-3.823-2.252-5.289c-1.047-1.466-2.428-2.6-4.138-3.404c-1.711-0.803-3.821-1.205-6.336-1.205
		c-2.514,0-4.627,0.402-6.337,1.205c-1.711,0.805-3.09,1.938-4.137,3.404c-1.048,1.466-1.799,3.229-2.252,5.289
		c-0.454,2.061-0.681,4.347-0.681,6.86V131.67z"/>
	<path d="M500.567,64.641c4.189,0,7.769,0.611,10.735,1.833c2.967,1.223,5.394,2.985,7.277,5.289
		c1.887,2.304,3.266,5.115,4.139,8.432c0.872,3.317,1.309,7.069,1.309,11.26c0,4.189-0.594,7.769-1.78,10.734
		c-1.188,2.968-2.827,5.395-4.923,7.279c-2.095,1.885-4.572,3.265-7.436,4.137c-2.863,0.873-5.971,1.311-9.321,1.311h-10.055v43.568
		h-13.406V64.641H500.567z M493.864,104.859c3.353,0,6.108-0.227,8.273-0.681c2.164-0.453,3.875-1.204,5.132-2.251
		s2.13-2.426,2.619-4.137c0.488-1.71,0.731-3.823,0.731-6.336c0-2.514-0.087-4.801-0.262-6.86s-0.785-3.823-1.833-5.289
		c-1.047-1.466-2.705-2.6-4.975-3.404c-2.271-0.803-5.498-1.205-9.688-1.205h-3.352v30.164L493.864,104.859L493.864,104.859z"/>
	<path d="M572.021,74.695h-23.46v30.164h16.757v10.056h-16.757v43.568h-13.406V64.641h36.866V74.695z"/>
</g>
<rect id="splitter" x="333.417" y="59.77" fill="#3C3C3C" width="2.5" height="98.713"/>
</svg>
